PathFileType	4	(X/Y/Z)	C:/Users/opensim2020/Desktop/walking_exp_matlab/subject06_walking20_straight_01.trc																																																																																																																															
DataRate	CameraRate	NumFrames	NumMarkers	Units	OrigDataRate	OrigDataStartFrame	OrigNumFrames																																																																																																																											
100	100	6	43	mm	100	844	127																																																																																																																											
Frame#	Time	LFHD			RFHD			LBHD			RBHD			C7			T10			CLAV			STRN			RBAK			LSHO			LUPA			LELB			LFRM			LWRA			LWRB			LFIN			RSHO			RUPA			RELB			RFRM			RWRA			RWRB			RFIN			LASI			RASI			LPSI			RPSI			LTHI			LKNE			LTIB			LANK			LHEE			LTOE			RTHI			RKNE			RTIB			RANK			RHEE			RTOE			*39			*40			*41			*42		
		X1	Y1	Z1	X2	Y2	Z2	X3	Y3	Z3	X4	Y4	Z4	X5	Y5	Z5	X6	Y6	Z6	X7	Y7	Z7	X8	Y8	Z8	X9	Y9	Z9	X10	Y10	Z10	X11	Y11	Z11	X12	Y12	Z12	X13	Y13	Z13	X14	Y14	Z14	X15	Y15	Z15	X16	Y16	Z16	X17	Y17	Z17	X18	Y18	Z18	X19	Y19	Z19	X20	Y20	Z20	X21	Y21	Z21	X22	Y22	Z22	X23	Y23	Z23	X24	Y24	Z24	X25	Y25	Z25	X26	Y26	Z26	X27	Y27	Z27	X28	Y28	Z28	X29	Y29	Z29	X30	Y30	Z30	X31	Y31	Z31	X32	Y32	Z32	X33	Y33	Z33	X34	Y34	Z34	X35	Y35	Z35	X36	Y36	Z36	X37	Y37	Z37	X38	Y38	Z38	X39	Y39	Z39	X40	Y40	Z40	X41	Y41	Z41	X42	Y42	Z42	X43	Y43	Z43
																																																																																																																																		
112	1.11	587.83221	1671.48975	-1034.49268	574.83154	1648.83032	-905.23346	459.16293	1612.46802	-1054.90405	446.7923	1594.74976	-927.39777	459.85468	1451.50574	-1004.97205	426.05002	1125.13562	-1006.33856	570.24036	1375.87134	-1002.50452	610.49231	1201.30859	-1014.63043	386.87555	1280.0094	-931.54767	519.02649	1412.67139	-1164.04004	519.97034	1213.16821	-1240.7439	518.11053	1100.03076	-1253.89099	578.1413	961.78375	-1274.62903	670.44629	873.19305	-1228.75378	616.2309	848.74615	-1267.62927	681.79346	786.06427	-1265.28125	519.18463	1402.84082	-842.82111	473.4054	1208.73999	-755.19208	480.43982	1086.78259	-740.95038	507.9126	969.98688	-724.66437	585.18774	840.84991	-758.80383	531.01276	834.33368	-719.48743	577.54535	764.47742	-717.74457	602.02911	964.6286	-1115.17236	605.06909	974.65149	-896.0929	446.18454	987.35248	-1089.40564	452.54749	996.57434	-921.5343	599.71918	645.15656	-1161.49927	646.48676	490.63181	-1134.60522	477.54495	315.70078	-1133.86084	360.13232	187.77298	-1104.04578	319.18643	198.60089	-1057.50525	446.74371	73.50778	-1105.57629	587.43463	639.31476	-846.31	608.1825	516.70416	-877.40796	555.33673	252.67868	-874.84625	523.50812	69.47456	-918.00311	478.767	44.92908	-958.86743	672.40814	35.64424	-924.55365	480.32111	1700.42542	-984.36249	NaN	NaN	NaN	NaN	NaN	NaN	NaN	NaN	NaN
113	1.12	601.74994	1672.14722	-1034.44812	588.61694	1649.89294	-905.18457	473.00284	1613.37524	-1055.0249	460.37732	1595.8717	-927.43976	473.50476	1452.45996	-1004.66492	439.15598	1126.11194	-1005.79755	583.7608	1376.70642	-1002.18469	623.815	1202.05933	-1013.93481	399.95566	1281.54602	-930.58087	532.65186	1413.56335	-1163.81445	530.83722	1213.97424	-1240.50818	527.08606	1100.71472	-1253.21753	582.48541	960.45197	-1274.66614	671.53546	867.94	-1229.63281	616.25598	846.1546	-1268.4574	678.76556	780.18494	-1266.00635	532.82941	1403.95337	-842.51849	487.31573	1210.01477	-754.37561	495.18658	1088.26221	-739.96478	526.32892	972.49164	-724.17969	607.66852	846.41748	-759.68652	554.50885	837.83191	-720.00677	603.73065	769.78137	-718.90851	615.43762	965.67114	-1113.91797	616.82263	974.58984	-895.15125	459.33356	988.59161	-1089.41467	464.50803	997.31097	-921.42847	617.43994	648.02026	-1161.65393	666.80322	494.41907	-1134.33911	505.34445	311.7977	-1134.00623	394.25497	178.28326	-1104.07324	352.45361	187.05026	-1057.56824	486.98947	69.53873	-1105.46936	593.95483	638.9649	-846.16534	612.90887	515.95044	-876.52496	556.7525	252.48204	-874.80786	523.5061	69.54087	-918.27997	478.61462	45.09645	-959.13977	672.37506	35.57216	-924.60614	494.17188	1701.396	-984.51074	NaN	NaN	NaN	NaN	NaN	NaN	NaN	NaN	NaN
114	1.13	615.62805	1672.55127	-1034.34863	602.04565	1650.33936	-905.17438	486.86185	1613.87708	-1055.09912	473.97131	1596.54797	-927.55658	487.24048	1453.10706	-1004.51697	452.28607	1126.72937	-1005.37512	597.26263	1377.14502	-1001.8288	637.11743	1202.38257	-1013.24353	413.57043	1281.99451	-930.1554	546.39697	1413.99463	-1163.61377	541.3855	1214.1637	-1239.81995	536.2417	1101.04199	-1252.62585	586.5011	958.8465	-1274.80188	672.36487	862.63428	-1230.61633	616.03333	843.40656	-1269.30835	675.60461	774.59833	-1267.19214	546.44128	1404.71399	-842.20386	501.25851	1210.88318	-753.62622	509.85013	1089.35693	-738.9964	544.60333	974.77173	-723.76782	630.5835	852.15845	-760.32684	577.80792	841.29974	-720.63495	629.67169	775.15619	-720.11609	628.87561	966.28674	-1112.69287	628.77319	974.3764	-893.99072	472.51724	989.41235	-1089.40015	476.42224	997.78351	-921.37018	634.70789	650.39343	-1162.21582	686.68066	497.85013	-1134.31787	533.33649	307.33972	-1134.08008	428.92133	168.45293	-1103.91309	386.6994	174.74876	-1057.245	527.73145	65.47296	-1105.28137	600.78662	638.43054	-845.95605	617.86017	514.97601	-876.1637	558.37323	252.17778	-874.72345	523.4657	69.58292	-918.51453	478.97842	45.00144	-959.73889	672.1507	35.47087	-924.53674	508.01895	1701.96997	-984.71637	NaN	NaN	NaN	NaN	NaN	NaN	NaN	NaN	NaN
115	1.14	629.53375	1672.62708	-1034.33752	615.43793	1650.52319	-905.24744	500.76987	1614.01953	-1055.21497	487.6597	1596.85986	-927.71558	500.97403	1453.37183	-1004.16315	465.29993	1126.96033	-1005.04797	610.85101	1377.28784	-1001.46173	650.36847	1202.36023	-1012.50085	426.73297	1282.67419	-929.50116	560.05786	1413.83533	-1163.36829	552.71167	1214.27161	-1239.87854	545.42395	1101.06494	-1252.12646	590.81311	957.20593	-1274.86243	673.03131	857.30383	-1231.80542	615.60284	840.69702	-1270.10864	672.15649	769.21985	-1268.58716	560.03162	1405.09192	-841.89612	515.48676	1211.36841	-752.6875	524.45813	1090.12695	-738.04681	562.8606	976.85217	-723.34406	653.12848	857.86676	-761.08472	600.79749	844.84052	-721.1759	655.28162	780.66168	-721.39453	642.41357	966.63763	-1111.51038	640.45966	973.70947	-892.9458	485.14417	990.19995	-1089.42322	488.56335	997.91339	-921.45435	651.70673	652.68909	-1162.68994	706.00879	500.87231	-1134.45264	561.35547	302.43585	-1134.33447	464.45203	158.29073	-1103.67065	421.86465	162.11649	-1057.20935	569.34918	61.75302	-1105.50854	607.92102	637.69189	-845.83978	623.08856	513.92432	-875.51575	560.18921	251.81097	-874.67419	523.37604	69.60282	-918.72156	478.30194	45.24144	-960.0473	671.95319	35.35849	-924.38361	521.83673	1702.19153	-984.88385	NaN	NaN	NaN	NaN	NaN	NaN	NaN	NaN	NaN
116	1.15	643.495	1672.40466	-1034.34155	629.16669	1650.45801	-905.25043	514.69269	1613.83984	-1055.33691	501.35626	1596.89685	-927.80444	514.62915	1453.38171	-1004.0304	478.51993	1126.90369	-1004.74249	624.54309	1377.00916	-1001.18231	663.63159	1202.00439	-1011.79993	440.12552	1282.86902	-929.04706	574.03333	1413.56628	-1163.30273	563.78156	1213.68103	-1239.19397	554.78168	1100.74475	-1251.65918	595.17676	955.42078	-1275.07715	673.9173	852.1748	-1233.23047	615.07568	837.99542	-1270.82275	668.5824	764.26965	-1270.28796	573.53741	1405.24585	-841.61383	529.0174	1211.46997	-752.32941	539.14233	1090.56653	-737.14923	580.97314	978.69806	-723.01489	675.15924	863.4834	-761.94257	623.70868	848.08344	-722.15631	680.42395	786.17346	-722.71246	655.99463	966.64514	-1110.40613	652.39941	972.84424	-891.81989	498.55057	990.17029	-1089.78784	500.70737	997.7644	-921.54272	668.75995	654.66766	-1163.26038	724.76147	503.53998	-1134.82861	589.3974	297.31058	-1134.80029	500.78406	147.95676	-1103.54309	458.28229	149.17447	-1056.67798	611.45245	58.39629	-1106.20435	615.31958	636.7533	-845.74591	628.82758	512.74634	-874.9895	562.34723	251.4243	-874.46906	523.31879	69.60269	-918.896	478.58081	45.07056	-960.29352	671.69226	35.08698	-924.22699	535.70361	1702.11597	-985.05511	NaN	NaN	NaN	NaN	NaN	NaN	NaN	NaN	NaN
117	1.16	657.48022	1671.80579	-1034.3905	642.95557	1650.10718	-905.30261	528.64673	1613.37988	-1055.45264	515.13214	1596.58276	-927.95728	528.49939	1453.17969	-1003.9411	491.51477	1126.5907	-1004.51428	638.23401	1376.48389	-1000.85333	676.91364	1201.33594	-1011.02344	453.28961	1282.84924	-928.67365	588.00458	1412.84644	-1163.1604	574.76331	1212.71191	-1238.5448	564.43774	1100.15979	-1251.29944	599.55963	953.56573	-1275.26672	674.14819	846.87012	-1234.6394	614.48822	835.37354	-1271.43762	665.00787	759.5542	-1272.07275	587.13245	1404.9845	-841.33014	542.88525	1211.24304	-751.73297	553.9267	1090.73364	-736.2774	598.97339	980.39294	-722.75684	696.77789	869.01611	-762.84583	646.10748	851.40814	-722.98743	705.21344	791.76257	-724.08783	669.56732	966.38702	-1109.36963	664.39539	971.72198	-890.87695	511.8457	989.91339	-1089.95093	513.02545	997.41534	-921.79974	684.47699	656.00122	-1164.20972	742.97351	505.7587	-1135.28088	617.65704	291.91617	-1135.15625	537.8703	137.64825	-1103.59204	495.46927	136.32309	-1056.46118	653.78827	55.32528	-1107.1908	623.08545	635.66467	-845.6297	634.80029	511.39706	-874.4068	564.95233	250.88174	-874.42572	523.38165	69.50151	-919.17963	478.55984	44.96714	-960.38452	671.56659	34.95365	-923.94537	549.67529	1701.69519	-985.31116	NaN	NaN	NaN	NaN	NaN	NaN	NaN	NaN	NaN
